/* XPM */
static char *graphic[] = {
/* width height num_colors chars_per_pixel */
"16 16 207 2", 
/* colors */
"   c None",
".  c None",
"X  c #AAAAAA",
"o  c #888888",
"O  c None",
"+  c #AAAAAA",
"@  c None",
"#  c #CCCCCC",
"$  c None",
"%  c #979797",
"&  c #B9B9B9",
"*  c #979797",
"=  c #B9B9B9",
"-  c #DBDBDB",
";  c None",
":  c None",
">  c None",
",  c None",
"<  c #9A9A9A",
"1  c #A6A6A6",
"2  c None",
"3  c None",
"4  c None",
"5  c #939393",
"6  c #D7D7D7",
"7  c None",
"8  c #969696",
"9  c None",
"0  c None",
"q  c #C4C4C4",
"w  c None",
"e  c None",
"r  c None",
"t  c #A9A9A9",
"y  c #B1B1B1",
"u  c #D3D3D3",
"i  c None",
"p  c #C0C0C0",
"a  c None",
"s  c None",
"d  c #7C7C7C",
"f  c #9E9E9E",
"g  c #C0C0C0",
"h  c None",
"j  c None",
"k  c None",
"l  c #ADADAD",
"z  c #ADADAD",
"x  c None",
"c  c #8B8B8B",
"v  c #C3C3C3",
"b  c #ADADAD",
"n  c #CFCFCF",
"m  c #9A9A9A",
"M  c #9A9A9A",
"N  c #B4B4B4",
"B  c None",
"V  c None",
"C  c #CBCBCB",
"Z  c #BFBFBF",
"A  c None",
"S  c #B4B4B4",
"D  c #A9A9A9",
"F  c None",
"G  c None",
"H  c #CBCBCB",
"J  c #969696",
"K  c #969696",
"L  c #B8B8B8",
"P  c None",
"I  c #C7C7C7",
"U  c None",
"Y  c #A5A5A5",
"T  c #A5A5A5",
"R  c #C7C7C7",
"E  c #C7C7C7",
"W  c None",
"Q  c None",
"!  c None",
"~  c #929292",
"^  c #929292",
"/  c #B4B4B4",
"(  c None",
")  c None",
"_  c #C3C3C3",
"`  c None",
"'  c None",
"]  c #A1A1A1",
"[  c #C3C3C3",
"{  c None",
"}  c None",
"|  c #D2D2D2",
" . c None",
".. c #C6C6C6",
"X. c #B0B0B0",
"o. c None",
"O. c None",
"+. c #D2D2D2",
"@. c #F4F4F4",
"#. c #9D9D9D",
"$. c None",
"%. c None",
"&. c #9D9D9D",
"*. c #BFBFBF",
"=. c #E1E1E1",
"-. c #ACACAC",
";. c #ACACAC",
":. c #8A8A8A",
">. c #ACACAC",
",. c #CECECE",
"<. c #BBBBBB",
"1. c None",
"2. c #DDDDDD",
"3. c #868686",
"4. c #A8A8A8",
"5. c #B9B9B9",
"6. c None",
"7. c #B7B7B7",
"8. c #959595",
"9. c #D9D9D9",
"0. c None",
"q. c #989898",
"w. c #B7B7B7",
"e. c #D9D9D9",
"r. c None",
"t. c #9C9C9C",
"y. c #A4A4A4",
"u. c #A4A4A4",
"i. c #C6C6C6",
"p. c None",
"a. c None",
"s. c #919191",
"d. c #B3B3B3",
"f. c #A0A0A0",
"g. c #D5D5D5",
"h. c None",
"j. c #A0A0A0",
"k. c None",
"l. c #E4E4E4",
"z. c None",
"x. c None",
"c. c #C5C5C5",
"v. c #BABABA",
"b. c None",
"n. c None",
"m. c #9C9C9C",
"M. c None",
"N. c None",
"B. c #9C9C9C",
"V. c #BEBEBE",
"C. c None",
"Z. c #CDCDCD",
"A. c #898989",
"S. c #ABABAB",
"D. c #CDCDCD",
"F. c None",
"G. c None",
"H. c None",
"J. c #989898",
"K. c None",
"L. c None",
"P. c #909090",
"I. c #858585",
"U. c #A7A7A7",
"Y. c #C9C9C9",
"T. c None",
"R. c None",
"E. c #B8B8B8",
"W. c None",
"Q. c #B6B6B6",
"!. c #B6B6B6",
"~. c #949494",
"^. c #B6B6B6",
"/. c #979797",
"(. c #A3A3A3",
"). c None",
"_. c None",
"`. c None",
"'. c #A3A3A3",
"]. c #A3A3A3",
"[. c #C5C5C5",
"{. c #B4B4B4",
"}. c #E7E7E7",
"|. c None",
" X c #9B9B9B",
".X c #909090",
"XX c #D4D4D4",
"oX c None",
"OX c #979797",
"+X c #9F9F9F",
"@X c None",
"#X c None",
"$X c #7D7D7D",
"%X c #9F9F9F",
"&X c None",
"*X c None",
"=X c #AEAEAE",
"-X c None",
";X c #8C8C8C",
":X c #AEAEAE",
">X c None",
",X c None",
"<X c #9B9B9B",
"1X c #9B9B9B",
"2X c #BDBDBD",
"3X c #BDBDBD",
"4X c None",
/* pixels */
"} } r   i R. .k.e h.O P z.r.L.P ",
": , |.4 5.v.^.=XX ]. X`.B . $ O.",
"x.a.0...Y.Z.R _ Q.X 1 &.8 _.G a ",
"1.N.c.+.| & q <.d.y #.(.f q.>X-X",
").{.[.C X.4.=.V.>.E M M f.M 2 *X",
"T.N *.z >.- @.Y.d.- i.M 5 B.t.x ",
"V X.7.1Xg l.}.e.H XXXX+ d <XB.o.",
"0 b ;.* 3Xe.[.u g.[ D.S.$X+Xj.%.",
"s 4.1 :.D [.= +.6 g # b c T %X` ",
"@ &.'.I.^ E ,.n XX2.6 j.&.=X%X{ ",
"@XOX%X~ A.U.L >.f [ 4.~./ :Xt n.",
"h `.M J ^ ~..X8.3.u.&.S.p :XE.Q ",
"F 4X/.~.m.l J.;Xo d.9.I w.Z j ; ",
"oXM.9 < K % y.Y -.2X!.^.v ( 3   ",
"7 ,X#XW.' P.s.m ] 4.S F.A &X) U ",
"L.C.> ! p.b.G.K.w 6.W U $.k H.3 "
};
