/* XPM */
static char *graphic[] = {
/* width height num_colors chars_per_pixel */
"32 32 429 2", 
/* colors */
"   c None",
".  c #CCCCCC",
"X  c None",
"o  c #9A9A9A",
"O  c None",
"+  c #969696",
"@  c #888888",
"#  c #AAAAAA",
"$  c #CCCCCC",
"%  c None",
"&  c None",
"*  c #979797",
"=  c None",
"-  c #B9B9B9",
";  c None",
":  c #B8B8B8",
">  c #979797",
",  c None",
"<  c None",
"1  c #939393",
"2  c #979797",
"3  c None",
"4  c #B9B9B9",
"5  c None",
"6  c #DBDBDB",
"7  c #929292",
"8  c None",
"9  c #A6A6A6",
"0  c None",
"q  c #929292",
"w  c None",
"e  c #A6A6A6",
"r  c None",
"t  c #C8C8C8",
"y  c #EAEAEA",
"u  c None",
"i  c None",
"p  c None",
"a  c None",
"s  c None",
"d  c #B5B5B5",
"f  c #D7D7D7",
"g  c #939393",
"h  c #B5B5B5",
"j  c None",
"k  c None",
"l  c #D7D7D7",
"z  c #929292",
"x  c None",
"c  c None",
"v  c #8F8F8F",
"b  c None",
"n  c None",
"m  c #A2A2A2",
"M  c None",
"N  c #C4C4C4",
"B  c #A2A2A2",
"V  c #808080",
"C  c None",
"Z  c #A2A2A2",
"A  c #C4C4C4",
"S  c #E6E6E6",
"D  c None",
"F  c None",
"G  c None",
"H  c #8F8F8F",
"J  c None",
"K  c #8F8F8F",
"L  c None",
"P  c None",
"I  c #9D9D9D",
"U  c #B1B1B1",
"Y  c None",
"T  c #8F8F8F",
"R  c #B1B1B1",
"E  c None",
"W  c #D3D3D3",
"Q  c None",
"!  c None",
"~  c #F5F5F5",
"^  c None",
"/  c #C0C0C0",
"(  c None",
")  c #9E9E9E",
"_  c #9E9E9E",
"`  c None",
"'  c #C0C0C0",
"]  c None",
"[  c #E2E2E2",
"{  c None",
"}  c #ADADAD",
"|  c None",
" . c None",
".. c #8B8B8B",
"X. c #ADADAD",
"o. c None",
"O. c #9A9A9A",
"+. c None",
"@. c #CFCFCF",
"#. c #F1F1F1",
"$. c None",
"%. c #9A9A9A",
"&. c #9A9A9A",
"*. c None",
"=. c #787878",
"-. c #9A9A9A",
";. c #BCBCBC",
":. c #BCBCBC",
">. c None",
",. c None",
"<. c #DEDEDE",
"1. c None",
"2. c #A8A8A8",
"3. c None",
"4. c #CBCBCB",
"5. c #878787",
"6. c None",
"7. c #A9A9A9",
"8. c None",
"9. c #CBCBCB",
"0. c None",
"q. c #EDEDED",
"w. c #969696",
"e. c #969696",
"r. c #C7C7C7",
"t. c None",
"y. c None",
"u. c None",
"i. c None",
"p. c #969696",
"a. c #B8B8B8",
"s. c None",
"d. c #DADADA",
"f. c #B7B7B7",
"g. c None",
"h. c None",
"j. c None",
"k. c #C7C7C7",
"l. c #616161",
"z. c None",
"x. c #838383",
"c. c None",
"v. c None",
"b. c #A5A5A5",
"n. c #C7C7C7",
"m. c None",
"M. c #E9E9E9",
"N. c #989898",
"B. c None",
"V. c #B4B4B4",
"C. c None",
"Z. c None",
"A. c None",
"S. c #929292",
"D. c None",
"F. c #B3B3B3",
"G. c #B4B4B4",
"H. c None",
"J. c #D6D6D6",
"K. c None",
"L. c None",
"P. c None",
"I. c None",
"U. c #A1A1A1",
"Y. c #C3C3C3",
"T. c #7F7F7F",
"R. c None",
"E. c #A1A1A1",
"W. c #C3C3C3",
"Q. c None",
"!. c None",
"~. c None",
"^. c None",
"/. c #8E8E8E",
"(. c #9D9D9D",
"). c #B0B0B0",
"_. c None",
"`. c #D2D2D2",
"'. c None",
"]. c None",
"[. c None",
"{. c #F4F4F4",
"}. c None",
"|. c None",
" X c #AFAFAF",
".X c #9D9D9D",
"XX c #A3A3A3",
"oX c None",
"OX c #9D9D9D",
"+X c #BFBFBF",
"@X c #9D9D9D",
"#X c #BFBFBF",
"$X c #999999",
"%X c None",
"&X c #E1E1E1",
"*X c #898989",
"=X c None",
"-X c None",
";X c None",
":X c None",
">X c #909090",
",X c #9C9C9C",
"<X c #ACACAC",
"1X c None",
"2X c #8A8A8A",
"3X c None",
"4X c #9C9C9C",
"5X c #ACACAC",
"6X c #CECECE",
"7X c None",
"8X c #F0F0F0",
"9X c None",
"0X c #BBBBBB",
"qX c None",
"wX c #999999",
"eX c None",
"rX c None",
"tX c None",
"yX c #999999",
"uX c None",
"iX c None",
"pX c #BBBBBB",
"aX c #8C8C8C",
"sX c #DDDDDD",
"dX c None",
"fX c None",
"gX c None",
"hX c #A8A8A8",
"jX c None",
"kX c None",
"lX c #A8A8A8",
"zX c None",
"xX c #868686",
"cX c None",
"vX c #989898",
"bX c #949494",
"nX c #A8A8A8",
"mX c #CACACA",
"MX c None",
"NX c None",
"BX c #ECECEC",
"VX c #959595",
"CX c None",
"ZX c #959595",
"AX c None",
"SX c None",
"DX c #959595",
"FX c #A3A3A3",
"GX c None",
"HX c #B7B7B7",
"JX c #D9D9D9",
"KX c None",
"LX c None",
"PX c None",
"IX c #A4A4A4",
"UX c None",
"YX c None",
"TX c #B6B6B6",
"RX c #C6C6C6",
"EX c #A4A4A4",
"WX c #A4A4A4",
"QX c None",
"!X c #A4A4A4",
"~X c #C6C6C6",
"^X c None",
"/X c None",
"(X c #E8E8E8",
")X c None",
"_X c #B3B3B3",
"`X c #6F6F6F",
"'X c #909090",
"]X c #919191",
"[X c None",
"{X c #B3B3B3",
"}X c None",
"|X c #D5D5D5",
" o c None",
".o c None",
"Xo c None",
"oo c None",
"Oo c #7E7E7E",
"+o c #C2C2C2",
"@o c #A0A0A0",
"#o c None",
"$o c #C2C2C2",
"%o c #8C8C8C",
"&o c #E4E4E4",
"*o c None",
"=o c None",
"-o c None",
";o c #9B9B9B",
":o c #8D8D8D",
">o c #AFAFAF",
",o c None",
"<o c #D1D1D1",
"1o c None",
"2o c None",
"3o c #BEBEBE",
"4o c #BEBEBE",
"5o c None",
"6o c #9C9C9C",
"7o c #BEBEBE",
"8o c None",
"9o c #A2A2A2",
"0o c #7A7A7A",
"qo c #9C9C9C",
"wo c None",
"eo c #BEBEBE",
"ro c None",
"to c None",
"yo c #ABABAB",
"uo c #ABABAB",
"io c #898989",
"po c None",
"ao c #9B9B9B",
"so c None",
"do c None",
"fo c #898989",
"go c #9B9B9B",
"ho c #9B9B9B",
"jo c #ABABAB",
"ko c None",
"lo c #CDCDCD",
"zo c None",
"xo c None",
"co c #EFEFEF",
"vo c #9E9E9E",
"bo c None",
"no c None",
"mo c #989898",
"Mo c #989898",
"No c #DCDCDC",
"Bo c #989898",
"Vo c #8B8B8B",
"Co c #BABABA",
"Zo c None",
"Ao c #DCDCDC",
"So c None",
"Do c #8B8B8B",
"Fo c #949494",
"Go c None",
"Ho c #A7A7A7",
"Jo c None",
"Ko c #939393",
"Lo c #C9C9C9",
"Po c None",
"Io c None",
"Uo c #949494",
"Yo c None",
"To c None",
"Ro c None",
"Eo c None",
"Wo c #B6B6B6",
"Qo c None",
"!o c #949494",
"~o c #B6B6B6",
"^o c None",
"/o c None",
"(o c #D8D8D8",
")o c None",
"_o c #A3A3A3",
"`o c #A3A3A3",
"'o c None",
"]o c None",
"[o c None",
"{o c None",
"}o c #818181",
"|o c #A3A3A3",
" O c #C5C5C5",
".O c #B2B2B2",
"XO c #909090",
"oO c None",
"OO c #8F8F8F",
"+O c #E7E7E7",
"@O c None",
"#O c None",
"$O c #909090",
"%O c #B2B2B2",
"&O c #909090",
"*O c #909090",
"=O c #8F8F8F",
"-O c None",
";O c #B2B2B2",
":O c #D4D4D4",
">O c None",
",O c None",
"<O c #9F9F9F",
"1O c #9F9F9F",
"2O c #7D7D7D",
"3O c #C1C1C1",
"4O c None",
"5O c #9F9F9F",
"6O c #C1C1C1",
"7O c #E3E3E3",
"8O c None",
"9O c None",
"0O c None",
"qO c #9A9A9A",
"wO c #BDBDBD",
"eO c #AEAEAE",
"rO c #ADADAD",
"tO c #9E9E9E",
"yO c #6A6A6A",
"uO c None",
"iO c #8B8B8B",
"pO c #BDBDBD",
"aO c #8C8C8C",
"sO c #AEAEAE",
"dO c None",
"fO c None",
"gO c #D0D0D0",
"hO c None",
"jO c #F2F2F2",
"kO c None",
"lO c #9B9B9B",
"zO c #9B9B9B",
"xO c None",
"cO c None",
"vO c #9B9B9B",
"bO c #797979",
"nO c #CCCCCC",
"mO c #9B9B9B",
"MO c None",
"NO c None",
"BO c #AAAAAA",
"VO c #BDBDBD",
"CO c None",
"ZO c #979797",
"AO c #BCBCBC",
/* pixels */
"            { bo$.zXJ hO[.6.        -OCO,.}.ooGXNOJo            ",
"        roboIoEo|.gX= , ] 9obXho4X+ >X3.Yo#oQXP.no^o5 GX        ",
"      )Xto8 SXu.jXL  XV.;OR # jo).e !X_ O.'X< gX;X,O    wo      ",
"    F @OC.Y -XoXTXCo+X+o4o0X} - _X9 yo9 @XB p.iOv.` M j.Qowo    ",
"  1.gX$.soPoqXpOmXk.RX+X<on. OeoR ).;O# 1OIXIXqov =o+.I.  gX_.  ",
"0.bo! w % /o' f / <ol lo#XW.CoCoa.sOe |ob.nX@ow.EXp.[XZo0 dX}X  ",
"So7XkXL.rX$oNo4.JXW W.' n.$ gO@.' eo4 >oe E.@o|ovO9 BoP zo5o8.iX",
"9X~.{ x wO<oY.Ao9.n.:.R joJX6O]XS.A #XE.@X@Xe qoE.$Ob.1 fXE 9OhO",
"@OxodoF.W.. `.$ W.h Ho_ 4 &o<.yX/.$ ~X# S.yXqob._ @olO|oOOn a ,o",
"'o[.poG.N n.$ :.R e yXt M.S q.).g W 9.t HX*Og yXb.yXyXe.@Xj +.^ ",
"#OCO2.6OWo O{XG.!X7.W.S 7Oy {.;OyXAogO9.$ ~o-.S.2 @op.* !XKoPXX ",
"*o{oBOpX+XVO5Xe !XW.(X[ +OBXjOX.p.Aol <o9.@.R /.foS.E.OXE.(.Z.H.",
"COs 5Xd 6O;Ob.5O!XAo<.&X+O8X(oa.sO6O6 |X<o9.~XS.x.V @Xqoe.@X>OQ ",
"KXN.X.yo:.nX5O5O_ d.<.[ &oco#.~ q.&od.(oJ.loLo5.}obODX@omoZ aX!.",
"*o;ojo_Xa.e |oE.e (oAo6O@.h A 9.pX#Xa.G.HX@.lo@ 0o@ mOHo.Xb.qO)o",
"c aojoeO{X5OyXBoBo(osXt W VOgOsXl [ gO9.~XgO9.:oV xXp.# wX@oo gX",
"0O,Xe `osO@og yX..6Xl Co~X6X`.JXJX(on.LoW.W mXaO]XaO|oHo* 5OtOgX",
"8O7 nXuo# E.*OT bO#Xlo-.h X.pXgOn.loR a.>o`. O@ DX..X.nX6oe I to",
"K.Vo@o_ob.|o2O*OV 7.t n.<o:OsX(Xy &XAo7O|XJX4 aO@og eoZ Uo# vo-X",
"Q.MX2 Mo@XHofoV ..*O9.$ 9.W 6X' :.<o&osX6 |X@Xp.@XE.$o@o&.# -oB.",
"H.u Fob.) E.qoOoDX@ !Xeo$ a.7.).jo>oVO<.9.b.]X# -.:.VOB e .Oy.s.",
"h. o%o@XzO!ob.xXxXyX2X-.Co-.h VOT.@o-.Lo-.x.!XyX_ gO7.<O{XrOgXcX",
"eXm.dOmOwX2 yX@X5.S.g yXBo5.@X!XyO|ob.# yXDX@XyX6Xeo# m 6OxO o; ",
"E cO)o*Xe %.!omOmOaOT @X*O5.Z ]Xl.sO2 E.G.E.g A <o>ouo:.: gXjXo.",
",.G s.:X$Xqoio/.mO5XsOnX@XV p.Z `XyX*OHX:O:O<.`.~olXa.r.1X^X.o1.",
">.Q ^ Q uOBozOZXg qo# >o5X@ =.T /.x.yX`.l d. Oa.U 7olokOC. .LX+.",
"  Q bo| *o'.E.U.Mo!o2 @ojoa.5X5OE.4 `.6X O{X;OhX3O6X]oUXMOgXD uX",
"  fOgX  O Zoz.ZOmOVXK &O!o-.jo{X;Oh >oX.WXeO%O~XnO1ot.3   gXs.  ",
"    GXA.[oI.` k z !o> T e.H K VXwXMolO<X5X;.~XAO2oD C R.3X#o    ",
"      -O    *.jX  Go=OXO2 2 BoE.Z 7.sOa.3of./X  jX8o    oO      ",
"        r =X=Xi CXgXgXg.AXDoq vXgoFXXXD.& gX  ( Top C.s.        ",
"            koc.tXRoYX].NXgX        gXXob ^.i.j.4O%X            "
};
